<?xml version="1.0" encoding="UTF-8" standalone="no"?>
<svg width="121px" height="17px" viewBox="0 0 121 17" version="1.1" xmlns="http://www.w3.org/2000/svg" xmlns:xlink="http://www.w3.org/1999/xlink" xmlns:sketch="http://www.bohemiancoding.com/sketch/ns">
    <!-- Generator: Sketch 3.3.3 (12081) - http://www.bohemiancoding.com/sketch -->
    <title>Exentriq Logo</title>
    <desc>Created with Sketch.</desc>
    <defs></defs>
    <g id="Page-1" stroke="none" stroke-width="1" fill="none" fill-rule="evenodd" sketch:type="MSPage">
        <g id="Main-UI-Layout" sketch:type="MSArtboardGroup" transform="translate(-72.000000, -24.000000)" fill="#9B9B9B">
            <g id="Sidebar" sketch:type="MSLayerGroup">
                <g id="Exentriq-Logo" transform="translate(72.000000, 24.000000)" sketch:type="MSShapeGroup">
                    <path d="M14.3630933,2.26773267 L2.49113667,2.26773267 L2.49113667,5.72277228 L2.73846557,5.72277228 C5.30382628,5.72277228 7.869187,5.7227302 10.43459,5.72281436 C10.68323,5.72281436 10.7509832,5.78690099 10.7516176,6.03327475 C10.7531402,6.66353713 10.7520828,7.2937995 10.7520828,7.94585891 L2.48745718,7.94585891 L2.48745718,11.9925743 L2.746036,11.9925743 C6.69983048,11.9925743 10.6535827,11.9925743 14.6073771,11.9926163 C14.8740762,11.9926163 14.931806,12.0479505 14.9322289,12.3117871 C14.9331594,12.9409554 14.932525,13.5701658 14.932525,14.2119579 C14.8511534,14.215703 14.789575,14.221005 14.7280811,14.221005 C9.9285554,14.2213837 5.129072,14.2214257 0.329588605,14.2212574 C0.113260398,14.2212153 0.0396284516,14.150354 0.0395861587,13.9306584 C0.038994058,9.3447401 0.0392901084,4.75882178 0.0397130374,0.172903465 C0.0397130374,0.13865099 0.043857742,0.104398515 0.0470720028,0.0543242574 C0.111907026,0.0500742574 0.172681929,0.0425841584 0.233456833,0.0425841584 C4.85674799,0.0420371287 9.47999685,0.0430470297 14.103288,0.0387549505 C14.3014726,0.0385866337 14.3811947,0.133938119 14.3828018,0.300824257 C14.3890189,0.931844059 14.3845781,1.5629901 14.3832247,2.19405198 C14.3831825,2.21332426 14.3730322,2.23255446 14.3630933,2.26773267" id="Fill-1"></path>
                    <path d="M82.9569402,2.1460396 L83.1995746,2.1460396 C86.3707812,2.1460396 89.5419878,2.14397772 92.713152,2.1472599 C93.7217955,2.14831188 94.6759657,2.35378465 95.4886662,2.98825495 C96.413612,3.71029208 96.8841206,4.67032921 96.9319962,5.83600743 C96.9583869,6.47885149 96.8931713,7.10936634 96.6393715,7.70920545 C96.2123401,8.71839109 95.3987938,9.27013366 94.3871898,9.5847599 C94.2599727,9.62431436 94.1300066,9.65507426 93.9641762,9.69993069 C95.037697,11.2000545 96.1031821,12.6889431 97.1891793,14.2065297 C97.0947393,14.2131361 97.0362482,14.2207946 96.9777571,14.2208366 C96.2166963,14.2216361 95.4555086,14.2155767 94.6945746,14.2259703 C94.5314086,14.2282005 94.4409864,14.1698366 94.3518329,14.0447351 C93.394956,12.7018614 92.4312698,11.3638688 91.4759154,10.0199431 C91.3840552,9.89071782 91.2910531,9.8427896 91.1317358,9.84333663 C89.2995225,9.84935396 87.467267,9.84716584 85.6350115,9.84716584 L85.398848,9.84716584 L85.398848,14.2073292 C85.3138815,14.2130941 85.2531066,14.2207525 85.1923317,14.2208366 C84.5439815,14.2216782 83.8956735,14.2216361 83.2473233,14.2212153 C83.0191954,14.221047 82.9597739,14.1617995 82.9565596,13.9270396 C82.9540643,13.7447946 82.9560098,13.5624653 82.9560098,13.3801782 C82.9563058,9.73418317 82.9566442,6.08818812 82.9569402,2.44219307 L82.9569402,2.1460396 L82.9569402,2.1460396 Z M85.4029504,4.37686881 L85.4029504,7.61629455 L85.5429399,7.61629455 C87.7969402,7.6162104 90.0509829,7.61932426 92.3049832,7.61217079 C92.5987497,7.61124505 92.8975068,7.58258911 93.1850563,7.52376238 C93.9966148,7.3577599 94.4303708,6.83391584 94.4425512,6.04295297 C94.4561272,5.16004703 94.1154579,4.69986881 93.245662,4.49687871 C92.9066844,4.4177698 92.549986,4.38355941 92.2011118,4.3819604 C90.0175715,4.37190347 87.8339465,4.37686881 85.6503639,4.37686881 L85.4029504,4.37686881 L85.4029504,4.37686881 Z" id="Fill-2"></path>
                    <path d="M34.0787344,2.1460396 L34.3227644,2.1460396 C38.3184712,2.1460396 42.3141779,2.1460396 46.3098424,2.14608168 C46.5937123,2.14608168 46.6437026,2.19527228 46.6439563,2.47968564 C46.6445907,3.10245792 46.6441678,3.7252302 46.6441678,4.3667698 L36.5150594,4.3667698 L36.5150594,6.81683168 L36.7560867,6.81683168 C38.9265585,6.81683168 41.0970727,6.81885149 43.2675446,6.81312871 C43.4492349,6.81266584 43.5483695,6.89863366 43.5511185,7.04809901 C43.5632566,7.7054604 43.5563628,8.3632005 43.5563628,9.03979208 L36.5138329,9.03979208 L36.5138329,11.9925743 L36.7594278,11.9925743 L46.7381003,11.9925743 C47.0319514,11.9925743 47.0909077,12.0486658 47.0913307,12.336151 C47.0922611,12.9527376 47.0916267,13.5692822 47.0916267,14.2111163 C47.0058567,14.2148614 46.9321402,14.2209629 46.8584659,14.2209629 C42.6936298,14.2214257 38.5287938,14.2214257 34.364,14.2212574 C34.125172,14.2212574 34.0659619,14.162599 34.0659196,13.9132376 C34.065539,10.0569307 34.0660042,6.20062376 34.0668501,2.34431683 C34.0668501,2.28267079 34.0740398,2.22102475 34.0787344,2.1460396" id="Fill-3"></path>
                    <path d="M52.4399874,4.33087624 L52.4399874,14.2084233 C52.3687662,14.2131782 52.3080336,14.2207525 52.2472587,14.2208366 C51.5987815,14.2216782 50.9503044,14.2216361 50.3018273,14.2212153 C50.0734456,14.2210891 50.0112328,14.1617153 50.0105984,13.9275866 C50.0086952,13.1982277 50.0100909,12.4688688 50.0101332,11.7395099 C50.0103446,8.63974505 50.0105561,5.5399802 50.0107676,2.44017327 L50.0107676,2.15601238 C50.098187,2.15209901 50.1662786,2.1464604 50.2343702,2.14641832 C51.2634834,2.14587129 52.2925966,2.14911139 53.3216676,2.14246287 C53.4644907,2.14153713 53.5518256,2.18971782 53.6389067,2.2962203 C55.6665131,4.77590594 57.6972069,7.25315099 59.7273932,9.73077475 C60.3594607,10.5021287 60.9918242,11.2732302 61.6585718,12.0865371 L61.6585718,2.16800495 C61.7314425,2.15836881 61.7776686,2.14696535 61.8239371,2.14688119 C62.5005813,2.14570297 63.1773523,2.15108911 63.8539119,2.14275743 C64.0371671,2.14048515 64.0744271,2.2545198 64.1110105,2.3852599 C64.1183272,2.41130693 64.1123216,2.44105693 64.1123216,2.46912376 L64.1123216,14.0406955 L64.1123216,14.2213837 L63.8825019,14.2213837 C62.8675145,14.2213837 61.8524425,14.216755 60.8374974,14.225802 C60.6640119,14.2273168 60.5556575,14.1736238 60.4481066,14.0419158 C58.5646767,11.734755 56.6765945,9.43129703 54.7895697,7.12699752 C54.0374327,6.20853465 53.2852111,5.29015594 52.5337931,4.37110396 C52.5167067,4.35019059 52.5086288,4.32195545 52.4963216,4.29717079 C52.4775435,4.30840594 52.4587655,4.31964109 52.4399874,4.33087624" id="Fill-4"></path>
                    <path d="M113.542788,1.95243317 C117.137981,1.99876238 120.194701,4.505 120.859588,7.99138861 C121.077227,9.13249257 121.011715,10.2641708 120.677559,11.3787649 C120.6595,11.4390644 120.637677,11.4982698 120.62059,11.5588639 C120.415724,12.2848144 119.841724,12.5803366 119.120799,12.3305545 C118.507468,12.1180124 118.212517,11.4212649 118.437557,10.8021114 C119.044292,9.1324505 118.698885,6.96381436 117.204085,5.57393812 C115.776023,4.24621287 114.095091,3.81654208 112.226802,4.4022005 C110.330092,4.9967797 109.122884,6.30548515 108.699997,8.24058168 C108.114409,10.9202698 109.653321,13.4381213 112.270237,14.1524158 C112.699341,14.2695223 113.159149,14.2701535 113.598573,14.3561213 C114.112051,14.4565223 114.400615,14.8174356 114.507785,15.3000421 C114.598757,15.7096411 114.453904,16.0783391 114.093949,16.3047673 C113.914585,16.4176238 113.67305,16.4987946 113.464377,16.489495 C109.578505,16.3170545 107.039873,13.5652005 106.456274,10.5745891 C105.685274,6.62364604 108.160001,2.9545495 112.119801,2.13013366 C112.586165,2.03305693 113.06805,2.00987129 113.542788,1.95243317" id="Fill-5"></path>
                    <path d="M24.0301517,6.71121287 C24.5421073,6.18240347 25.008302,5.68637376 25.4903142,5.2060396 C26.4762041,4.22353218 27.4695376,3.24834653 28.4640975,2.27446535 C28.52741,2.21252475 28.627475,2.15230941 28.7109612,2.15155198 C29.6338347,2.14284158 30.5567927,2.14608168 31.4959067,2.14608168 C31.4836417,2.18832921 31.474295,2.22043564 31.4626645,2.26053713 C31.5080447,2.26987871 31.5525792,2.27905198 31.6146229,2.29180198 C29.6104467,4.24642327 27.6184086,6.18917822 25.6190538,8.13904455 C27.6956777,10.1541337 29.7613055,12.1585347 31.8269332,14.1629356 C31.8166984,14.1824183 31.8065058,14.201901 31.7962709,14.2213837 L31.5974519,14.2213837 C30.7658043,14.2213837 29.9341143,14.2181856 29.1025089,14.224245 C28.9514387,14.2253391 28.8422384,14.187005 28.7313464,14.0779356 C27.2481342,12.6184604 25.7595931,11.1643292 24.272194,9.70906188 C24.2224575,9.66037624 24.1709025,9.61354208 24.1046718,9.55122277 C24.0345079,9.61775 23.9692499,9.67788119 23.9058528,9.73990594 C22.4237403,11.1905025 20.942389,12.6418985 19.4579081,14.0901386 C19.3977253,14.1488391 19.3089525,14.2149455 19.2329521,14.2156609 C18.2959105,14.224245 17.3587843,14.2212574 16.487043,14.2212574 C16.4109581,14.1394134 16.3701454,14.0955248 16.3277679,14.0499109 C18.3730105,12.0663391 20.4314062,10.0699752 22.5075648,8.05640099 C20.5040654,6.10249505 18.5059794,4.15380693 16.5078934,2.20516089 C16.5175362,2.18546782 16.5271367,2.16573267 16.5367372,2.1460396 L16.7320458,2.1460396 C17.5566728,2.1460396 18.3813422,2.15167822 19.2058001,2.14157921 C19.3838955,2.13943317 19.5056145,2.19430446 19.6289829,2.31658663 C21.0069703,3.68247772 22.390202,5.04319307 23.7705156,6.40681188 C23.8493072,6.4847005 23.9151573,6.5755495 24.0301517,6.71121287" id="Fill-6"></path>
                    <path d="M66.5480968,2.1460396 L66.7850217,2.1460396 C71.2388875,2.1460396 75.6927532,2.1460396 80.146619,2.14608168 C80.4182663,2.14608168 80.4766728,2.20558168 80.4768843,2.48557673 C80.4773918,3.10780198 80.4770535,3.73006931 80.4770535,4.37173515 L74.7327889,4.37173515 L74.7327889,14.2119579 C74.6535743,14.2159134 74.599101,14.2209629 74.54467,14.221005 C73.8822363,14.221552 73.2197179,14.2165866 72.5573688,14.2243713 C72.3687424,14.2266015 72.3110549,14.1236337 72.2890203,13.9713069 C72.2810269,13.9163515 72.28754,13.8592921 72.28754,13.8032005 C72.2876669,10.7601584 72.2877938,7.71711634 72.2878784,4.67407426 L72.2878784,4.37686881 L72.0245204,4.37686881 C70.290892,4.37686881 68.5572635,4.37421782 66.8236774,4.38082426 C66.6442709,4.38149752 66.5558364,4.2912797 66.5533411,4.15077723 C66.5415414,3.49282673 66.5480968,2.8345396 66.5480968,2.1460396" id="Fill-7"></path>
                    <path d="M102.854948,14.2212153 C102.091265,14.2212153 101.358794,14.226896 100.626747,14.2119158 C100.557851,14.2104851 100.481301,14.0857624 100.428604,14.0050965 C100.402721,13.9655 100.423022,13.8957748 100.423064,13.8396832 C100.423275,10.0321881 100.423614,6.22465099 100.42391,2.41711386 L100.42391,2.1460396 L101.537482,2.1460396 C101.889866,2.1460396 102.24242,2.15310891 102.594551,2.1432203 C102.785546,2.13787624 102.839427,2.24290594 102.854356,2.39935644 C102.857655,2.43411386 102.854948,2.46941832 102.854948,2.5044703 L102.854948,13.9901584 L102.854948,14.2212153" id="Fill-8"></path>
                    <path d="M114.937481,9.76342822 C115.333089,9.73780198 115.636033,10.0403936 115.882939,10.4008861 C117.000149,12.0318762 118.110422,13.6675792 119.216508,15.3061015 C119.566397,15.8244332 119.470096,16.2524629 118.951839,16.5987748 C118.852535,16.6651337 118.74435,16.721099 118.654562,16.7983564 C118.274899,17.1249332 117.504153,16.9666733 117.23056,16.5470173 C116.767453,15.8365941 116.281085,15.141151 115.800468,14.4421312 C115.137992,13.4786015 114.469976,12.5188589 113.808345,11.5547822 C113.628939,11.2934282 113.450082,11.0262252 113.554969,10.6807129 C113.565077,10.647302 113.573577,10.6131337 113.586561,10.5808589 C113.731372,10.2221757 114.448787,9.75311881 114.937481,9.76342822" id="Fill-9"></path>
                </g>
            </g>
        </g>
    </g>
</svg>